<?xml version="1.0" encoding="UTF-8" standalone="no"?>
<!-- Created with Inkscape (http://www.inkscape.org/) -->

<svg
   width="128"
   height="128"
   viewBox="0 0 33.866667 33.866667"
   version="1.1"
   id="svg5"
   inkscape:version="1.2.2 (b0a8486541, 2022-12-01)"
   sodipodi:docname="chronicle-logo.svg"
   inkscape:export-filename="chronicle-logo.png"
   inkscape:export-xdpi="750"
   inkscape:export-ydpi="750"
   xmlns:inkscape="http://www.inkscape.org/namespaces/inkscape"
   xmlns:sodipodi="http://sodipodi.sourceforge.net/DTD/sodipodi-0.dtd"
   xmlns="http://www.w3.org/2000/svg"
   xmlns:svg="http://www.w3.org/2000/svg">
  <sodipodi:namedview
     id="namedview7"
     pagecolor="#ffffff"
     bordercolor="#000000"
     borderopacity="0.25"
     inkscape:showpageshadow="2"
     inkscape:pageopacity="0.0"
     inkscape:pagecheckerboard="0"
     inkscape:deskcolor="#ffffff"
     inkscape:document-units="px"
     showgrid="true"
     inkscape:zoom="2.5786265"
     inkscape:cx="38.586434"
     inkscape:cy="22.492595"
     inkscape:window-width="1850"
     inkscape:window-height="1010"
     inkscape:window-x="0"
     inkscape:window-y="0"
     inkscape:window-maximized="1"
     inkscape:current-layer="layer1"
     showguides="true">
    <inkscape:grid
       type="xygrid"
       id="grid290"
       originx="0"
       originy="0"
       empspacing="8" />
  </sodipodi:namedview>
  <defs
     id="defs2" />
  <g
     inkscape:label="Layer 1"
     inkscape:groupmode="layer"
     id="layer1">
    <rect
       style="fill:#ffffff;fill-opacity:1;fill-rule:nonzero;stroke:none;stroke-width:24;stroke-linecap:square;stroke-linejoin:miter;stroke-dasharray:none;stroke-opacity:1;paint-order:markers stroke fill"
       id="rect3045"
       width="128"
       height="128"
       x="0"
       y="0"
       transform="scale(0.26458333)" />
    <path
       id="path1917"
       style="color:#000000;fill:#0057ff;fill-opacity:1;stroke-linecap:square;-inkscape-stroke:none;paint-order:markers stroke fill"
       transform="matrix(0.26458333,0,0,0.26458333,-2.5994223,59.097223)"
       d="m 50.529297,10.939453 -7.589844,2.53125 1.265625,3.794922 16.523438,49.570312 33.482421,16.742188 3.578125,1.789062 3.578128,-7.15625 L 97.789062,76.421875 67.271484,61.164062 51.794922,14.734375 Z m 10.16016,5.177737 5.353515,16.062498 a 32,32 0 0 1 13.95313,4.115237 L 88.000007,22.431642 A 47.999999,47.999999 0 0 0 60.689457,16.11719 Z m -22.69531,7.814451 A 47.999999,47.999999 0 0 0 34.460941,26.166016 47.999999,47.999999 0 0 0 17.849616,77.199221 47.999999,47.999999 0 0 0 58.933602,111.73242 47.999999,47.999999 0 0 0 100.09375,95.462891 L 84.949225,87.890626 A 32,32 0 0 1 64.000006,96.000003 32,32 0 0 1 32.000004,64.000001 32,32 0 0 1 43.269534,39.759768 Z" />
    <path
       id="path1917-1"
       style="color:#000000;fill:#7700ff;fill-opacity:1;stroke-linecap:square;-inkscape-stroke:none;paint-order:markers stroke fill"
       transform="matrix(0.26458333,0,0,0.26458333,1.4067093,0.07079758)"
       d="m 50.529297,10.939453 -7.589844,2.53125 1.265625,3.794922 16.523438,49.570312 33.482421,16.742188 3.578125,1.789062 3.578128,-7.15625 L 97.789062,76.421875 67.271484,61.164062 51.794922,14.734375 Z m 10.16016,5.177737 5.353515,16.062498 a 32,32 0 0 1 13.95313,4.115237 L 88.000007,22.431642 A 47.999999,47.999999 0 0 0 60.689457,16.11719 Z m -22.69531,7.814451 A 47.999999,47.999999 0 0 0 34.460941,26.166016 47.999999,47.999999 0 0 0 17.849616,77.199221 47.999999,47.999999 0 0 0 58.933602,111.73242 47.999999,47.999999 0 0 0 100.09375,95.462891 L 84.949225,87.890626 A 32,32 0 0 1 64.000006,96.000003 32,32 0 0 1 32.000004,64.000001 32,32 0 0 1 43.269534,39.759768 Z" />
    <path
       style="fill:#ff0066;fill-opacity:1;stroke-width:7.20155;stroke-linecap:round;stroke-linejoin:round;paint-order:markers stroke fill"
       id="path234-5"
       transform="matrix(0.14695911,0,0,0.14695911,5.3592741,-46.129319)"
       sodipodi:type="arc"
       sodipodi:cx="424.4314"
       sodipodi:cy="429.117"
       sodipodi:rx="86.418594"
       sodipodi:ry="86.418594"
       sodipodi:start="0.49007368"
       sodipodi:end="5.2359878"
       sodipodi:arc-type="slice"
       d="m 500.67837,469.79345 a 86.418594,86.418594 0 0 1 -85.36922,45.25933 86.418594,86.418594 0 0 1 -73.96507,-62.17297 86.418594,86.418594 0 0 1 29.90624,-91.87996 86.418594,86.418594 0 0 1 96.39038,-6.72354 L 424.4314,429.117 Z" />
    <circle
       style="fill:#ffffff;fill-opacity:1;stroke-width:4;stroke-linecap:round;stroke-linejoin:round;paint-order:markers stroke fill"
       id="path1036-6"
       transform="matrix(0.26458332,0,0,0.26458333,50.800001,1.0666667e-7)"
       cx="64"
       cy="64"
       r="32" />
    <path
       style="fill:none;fill-opacity:1;stroke:#ffffff;stroke-width:24;stroke-linecap:square;stroke-linejoin:miter;stroke-dasharray:none;stroke-opacity:1;paint-order:markers stroke fill"
       d="M 48.000001,16 64,64 112,88.000001"
       id="path1917-3-2"
       transform="matrix(0.26458333,0,0,0.26458333,50.8,1.0666667e-7)"
       sodipodi:nodetypes="ccc" />
    <path
       style="fill:none;fill-opacity:1;stroke:#ff0066;stroke-width:8;stroke-linecap:square;stroke-linejoin:miter;stroke-dasharray:none;stroke-opacity:1;paint-order:markers stroke fill"
       d="M 48.000001,16 64,64 96.000001,80.000001"
       id="path1917-9"
       transform="matrix(0.26458333,0,0,0.26458333,50.8,1.0666667e-7)"
       sodipodi:nodetypes="ccc" />
  </g>
</svg>
